<svg width="143" height="120" viewBox="0 0 143 120" fill="none" xmlns="http://www.w3.org/2000/svg">
<path d="M14.584 15.016V104.872L21.112 106.152V119.72H0.376007V0.167992H21.112V13.736L14.584 15.016Z" fill="black"/>
<path d="M128.416 15.016V104.872L121.888 106.152V119.72H142.624V0.167992H121.888V13.736L128.416 15.016Z" fill="black"/>
<path d="M64.696 18.488C64.696 14.136 63.48 10.8293 61.048 8.568C58.616 6.264 55.288 5.112 51.064 5.112C46.84 5.112 43.5547 6.30667 41.208 8.696C38.8613 11.0853 37.688 14.3707 37.688 18.552V39.096C37.688 41.6987 38.2427 43.96 39.352 45.88C40.4613 47.7573 42.04 49.208 44.088 50.232C46.0933 51.2133 48.44 51.704 51.128 51.704C53.6453 51.704 55.928 51.2347 57.976 50.296C60.024 49.3573 61.6667 47.9493 62.904 46.072C64.0987 44.1947 64.696 41.8693 64.696 39.096V18.488ZM57.592 37.816C57.592 39.1813 57.3573 40.376 56.888 41.4C56.376 42.3813 55.6507 43.1493 54.712 43.704C53.7307 44.216 52.5573 44.472 51.192 44.472C49.8267 44.472 48.6747 44.1947 47.736 43.64C46.7973 43.0853 46.072 42.296 45.56 41.272C45.048 40.248 44.792 39.0747 44.792 37.752V20.536C44.792 18.7013 44.984 17.208 45.368 16.056C45.752 14.904 46.4133 14.0507 47.352 13.496C48.2907 12.8987 49.5707 12.6 51.192 12.6C52.6853 12.6 53.9013 12.8773 54.84 13.432C55.7787 13.9867 56.4827 14.8613 56.952 16.056C57.3787 17.208 57.592 18.7013 57.592 20.536V37.816Z" fill="black"/>
<path d="M90.152 10.744C90.1093 10.744 90.344 10.6587 90.856 10.488C91.4107 10.3173 92.0933 10.0613 92.904 9.72C93.7147 9.37866 94.5467 8.93066 95.4 8.376C96.2533 7.77867 96.9573 7.05333 97.512 6.2H104.552V51H97.448L97.512 15.224C97.2133 15.48 96.7653 15.7147 96.168 15.928C95.5707 16.1413 94.952 16.3333 94.312 16.504C93.7147 16.632 93.2027 16.7387 92.776 16.824C92.392 16.8667 92.2213 16.888 92.264 16.888L90.152 10.744Z" fill="black"/>
<path d="M36.152 71.744C36.1093 71.744 36.344 71.6587 36.856 71.488C37.4107 71.3173 38.0933 71.0613 38.904 70.72C39.7147 70.3787 40.5467 69.9307 41.4 69.376C42.2533 68.7787 42.9573 68.0533 43.512 67.2H50.552V112H43.448L43.512 76.224C43.2133 76.48 42.7653 76.7147 42.168 76.928C41.5707 77.1413 40.952 77.3333 40.312 77.504C39.7147 77.632 39.2027 77.7387 38.776 77.824C38.392 77.8667 38.2213 77.888 38.264 77.888L36.152 71.744Z" fill="black"/>
<path d="M105.696 80.488C105.696 76.136 104.48 72.8293 102.048 70.568C99.616 68.264 96.288 67.112 92.064 67.112C87.84 67.112 84.5547 68.3067 82.208 70.696C79.8613 73.0853 78.688 76.3707 78.688 80.552V101.096C78.688 103.699 79.2427 105.96 80.352 107.88C81.4613 109.757 83.04 111.208 85.088 112.232C87.0933 113.213 89.44 113.704 92.128 113.704C94.6453 113.704 96.928 113.235 98.976 112.296C101.024 111.357 102.667 109.949 103.904 108.072C105.099 106.195 105.696 103.869 105.696 101.096V80.488ZM98.592 99.816C98.592 101.181 98.3573 102.376 97.888 103.4C97.376 104.381 96.6507 105.149 95.712 105.704C94.7307 106.216 93.5573 106.472 92.192 106.472C90.8267 106.472 89.6747 106.195 88.736 105.64C87.7973 105.085 87.072 104.296 86.56 103.272C86.048 102.248 85.792 101.075 85.792 99.752V82.536C85.792 80.7013 85.984 79.208 86.368 78.056C86.752 76.904 87.4133 76.0507 88.352 75.496C89.2907 74.8987 90.5707 74.6 92.192 74.6C93.6853 74.6 94.9013 74.8773 95.84 75.432C96.7787 75.9867 97.4827 76.8613 97.952 78.056C98.3787 79.208 98.592 80.7013 98.592 82.536V99.816Z" fill="black"/>
</svg>
