<svg width="250" xmlns="http://www.w3.org/2000/svg" height="38" fill="none"><g data-testid="Group"><g data-testid="Path"><path d="M79.34 16.409h28.646L95.833 4.318 99.306.864 117.535 19 99.306 37.136l-3.473-3.454 12.153-12.091H79.34v-5.182Z" style="fill: rgb(4, 20, 16); fill-opacity: 1;" class="fills"/><g class="strokes"><g class="inner-stroke-shape"><defs><clipPath id="b"><use href="#a"/></clipPath><path d="M79.34 16.409h28.646L95.833 4.318 99.306.864 117.535 19 99.306 37.136l-3.473-3.454 12.153-12.091H79.34v-5.182Z" id="a" style="fill: none; stroke-width: 4; stroke: rgb(4, 20, 16); stroke-opacity: 1;"/></defs><use href="#a" clip-path="url('#b')"/></g></g></g><g data-testid="Path"><path d="M145.486 0v28.5l12.153-12.091 3.472 3.455L142.882 38l-18.229-18.136 3.472-3.455L140.278 28.5V0h5.208Z" style="fill: rgb(4, 20, 16); fill-opacity: 1;" class="fills"/><g class="strokes"><g class="inner-stroke-shape"><defs><clipPath id="d"><use href="#c"/></clipPath><path d="M145.486 0v28.5l12.153-12.091 3.472 3.455L142.882 38l-18.229-18.136 3.472-3.455L140.278 28.5V0h5.208Z" id="c" style="fill: none; stroke-width: 4; stroke: rgb(4, 20, 16); stroke-opacity: 1;"/></defs><use href="#c" clip-path="url('#d')"/></g></g></g><g data-testid="Path"><path d="M206.424 21.591h-28.646l12.153 12.091-3.473 3.454L168.229 19 186.458.864l3.473 3.454-12.153 12.091h28.646v5.182Z" style="fill: rgb(4, 20, 16); fill-opacity: 1;" class="fills"/><g class="strokes"><g class="inner-stroke-shape"><defs><clipPath id="f"><use href="#e"/></clipPath><path d="M206.424 21.591h-28.646l12.153 12.091-3.473 3.454L168.229 19 186.458.864l3.473 3.454-12.153 12.091h28.646v5.182Z" id="e" style="fill: none; stroke-width: 4; stroke: rgb(4, 20, 16); stroke-opacity: 1;"/></defs><use href="#e" clip-path="url('#f')"/></g></g></g><g data-testid="Path"><path d="M229.167 38V9.5l-12.153 12.091-3.472-3.455L231.771 0 250 18.136l-3.472 3.455L234.375 9.5V38h-5.208Z" style="fill: rgb(4, 20, 16); fill-opacity: 1;" class="fills"/><g class="strokes"><g class="inner-stroke-shape"><defs><clipPath id="h"><use href="#g"/></clipPath><path d="M229.167 38V9.5l-12.153 12.091-3.472-3.455L231.771 0 250 18.136l-3.472 3.455L234.375 9.5V38h-5.208Z" id="g" style="fill: none; stroke-width: 4; stroke: rgb(4, 20, 16); stroke-opacity: 1;"/></defs><use href="#g" clip-path="url('#h')"/></g></g></g><g data-testid="Path"><path d="M0 16.409h28.646L16.493 4.318 19.965.864 38.194 19 19.965 37.136l-3.472-3.454 12.153-12.091H0v-5.182Z" style="fill: rgb(4, 20, 16); fill-opacity: 1;" class="fills"/><g class="strokes"><g class="inner-stroke-shape"><defs><clipPath id="j"><use href="#i"/></clipPath><path d="M0 16.409h28.646L16.493 4.318 19.965.864 38.194 19 19.965 37.136l-3.472-3.454 12.153-12.091H0v-5.182Z" id="i" style="fill: none; stroke-width: 4; stroke: rgb(4, 20, 16); stroke-opacity: 1;"/></defs><use href="#i" clip-path="url('#j')"/></g></g></g><g data-testid="Path"><path d="M45.313 12.523h26.909v4.318H45.313v-4.318Zm0 8.636h26.909v4.318H45.313v-4.318Z" style="fill: rgb(4, 20, 16); fill-opacity: 1;" class="fills"/><g class="strokes"><g class="inner-stroke-shape"><defs><clipPath id="l"><use href="#k"/></clipPath><path d="M45.313 12.523h26.909v4.318H45.313v-4.318Zm0 8.636h26.909v4.318H45.313v-4.318Z" id="k" style="fill: none; stroke-width: 4; stroke: rgb(4, 20, 16); stroke-opacity: 1;"/></defs><use href="#k" clip-path="url('#l')"/></g></g></g></g></svg>